<svg width="21" height="21" viewBox="0 0 21 21" fill="none" xmlns="http://www.w3.org/2000/svg">
<path d="M3.578 6.487C4.55072 4.80821 6.1004 3.54014 7.93848 2.9189C9.77657 2.29766 11.7778 2.36558 13.5695 3.11003C15.3613 3.85448 16.8214 5.22472 17.678 6.9656C18.5347 8.70648 18.7294 10.6994 18.2261 12.5732C17.7227 14.447 16.5556 16.074 14.9419 17.1513C13.3282 18.2286 11.378 18.6827 9.45441 18.4291C7.53082 18.1755 5.76494 17.2315 4.48557 15.7728C3.20621 14.3142 2.50055 12.4402 2.5 10.5" stroke="#fff" stroke-linecap="round" stroke-linejoin="round"/>
<path d="M12.5 10.5C12.5 11.6046 11.6046 12.5 10.5 12.5C9.39543 12.5 8.5 11.6046 8.5 10.5C8.5 9.39543 9.39543 8.5 10.5 8.5C11.6046 8.5 12.5 9.39543 12.5 10.5Z" fill="#fff" stroke="#fff" stroke-linecap="round" stroke-linejoin="round"/>
<path d="M7.5 6.5H3.5V2.5" stroke="black" stroke-linecap="round" stroke-linejoin="round"/>
</svg>
